<?xml version="1.0" standalone="no"?>
<!DOCTYPE svg PUBLIC "-//W3C//DTD SVG 20010904//EN"
 "http://www.w3.org/TR/2001/REC-SVG-20010904/DTD/svg10.dtd">
<svg version="1.0" xmlns="http://www.w3.org/2000/svg"
 width="260.000000pt" height="260.000000pt" viewBox="0 0 260.000000 260.000000"
 preserveAspectRatio="xMidYMid meet">
<metadata>
Created by potrace 1.11, written by Peter Selinger 2001-2013
</metadata>
<g transform="translate(0.000000,260.000000) scale(0.100000,-0.100000)"
fill="#000000" stroke="none">
<path d="M675 2213 c-24 -23 -44 -73 -56 -136 -5 -29 -11 -62 -14 -75 -13 -70
-20 -254 -20 -547 0 -332 4 -418 25 -510 19 -85 20 -85 207 -85 l163 0 1 -42
c1 -113 16 -273 29 -319 5 -17 17 -42 25 -56 l16 -24 352 4 c194 2 363 7 377
10 265 68 390 232 391 517 2 329 -144 607 -392 744 -55 30 -63 39 -94 105 -45
93 -83 147 -151 215 -69 70 -125 109 -218 151 -116 54 -176 63 -412 65 -189 1
-214 -1 -229 -17z m493 -213 c62 -31 149 -115 185 -178 l18 -32 -140 0 c-154
0 -160 -2 -187 -66 -36 -86 -59 -279 -63 -542 -1 -24 -5 -41 -10 -38 -15 10
-51 96 -62 149 -18 85 -20 451 -3 538 35 185 120 240 262 169z m277 -527 c2
-107 -15 -183 -56 -250 -22 -38 -77 -93 -92 -93 -13 0 1 241 17 303 15 53 36
97 61 123 19 20 50 33 59 24 5 -5 9 -53 11 -107z m365 -222 c26 -81 34 -145
33 -246 -1 -95 -7 -124 -37 -190 -47 -104 -148 -173 -260 -180 -109 -7 -187
50 -222 163 -19 58 -13 71 29 72 37 0 170 51 216 82 120 83 196 221 200 363 2
40 15 20 41 -64z"/>
</g>
</svg>
